<mxfile host="Electron" modified="2024-02-19T20:17:16.728Z" agent="Mozilla/5.0 (Windows NT 10.0; Win64; x64) AppleWebKit/537.36 (KHTML, like Gecko) draw.io/23.1.5 Chrome/120.0.6099.109 Electron/28.1.0 Safari/537.36" etag="N3J-v12h78WGO9uV5wNX" version="23.1.5" type="device">
  <diagram name="Page-1" id="9PTen37L1RaKldLgZpsQ">
    <mxGraphModel dx="875" dy="1624" grid="1" gridSize="10" guides="1" tooltips="1" connect="1" arrows="1" fold="1" page="1" pageScale="1" pageWidth="850" pageHeight="1100" math="0" shadow="0">
      <root>
        <mxCell id="0" />
        <mxCell id="1" parent="0" />
        <mxCell id="liYk_GvnNs1xZ8OgV5sw-14" style="edgeStyle=orthogonalEdgeStyle;rounded=0;orthogonalLoop=1;jettySize=auto;html=1;entryX=0;entryY=0.5;entryDx=0;entryDy=0;strokeWidth=3;curved=1;" edge="1" parent="1" source="liYk_GvnNs1xZ8OgV5sw-1" target="liYk_GvnNs1xZ8OgV5sw-2">
          <mxGeometry relative="1" as="geometry" />
        </mxCell>
        <mxCell id="liYk_GvnNs1xZ8OgV5sw-15" style="edgeStyle=orthogonalEdgeStyle;rounded=0;orthogonalLoop=1;jettySize=auto;html=1;entryX=0.5;entryY=0;entryDx=0;entryDy=0;strokeWidth=3;curved=1;strokeColor=#F19C99;" edge="1" parent="1" source="liYk_GvnNs1xZ8OgV5sw-1" target="liYk_GvnNs1xZ8OgV5sw-10">
          <mxGeometry relative="1" as="geometry" />
        </mxCell>
        <mxCell id="liYk_GvnNs1xZ8OgV5sw-1" value="" style="ellipse;whiteSpace=wrap;html=1;aspect=fixed;fillColor=#97D077;" vertex="1" parent="1">
          <mxGeometry x="230" y="40" width="80" height="80" as="geometry" />
        </mxCell>
        <mxCell id="liYk_GvnNs1xZ8OgV5sw-17" style="edgeStyle=orthogonalEdgeStyle;rounded=0;orthogonalLoop=1;jettySize=auto;html=1;entryX=1;entryY=0.5;entryDx=0;entryDy=0;strokeWidth=3;curved=1;" edge="1" parent="1" source="liYk_GvnNs1xZ8OgV5sw-2" target="liYk_GvnNs1xZ8OgV5sw-4">
          <mxGeometry relative="1" as="geometry">
            <Array as="points">
              <mxPoint x="430" y="-40" />
            </Array>
          </mxGeometry>
        </mxCell>
        <mxCell id="liYk_GvnNs1xZ8OgV5sw-2" value="" style="ellipse;whiteSpace=wrap;html=1;aspect=fixed;fillColor=#A680B8;" vertex="1" parent="1">
          <mxGeometry x="380" y="40" width="80" height="80" as="geometry" />
        </mxCell>
        <mxCell id="liYk_GvnNs1xZ8OgV5sw-21" style="edgeStyle=orthogonalEdgeStyle;rounded=0;orthogonalLoop=1;jettySize=auto;html=1;entryX=0;entryY=0;entryDx=0;entryDy=0;curved=1;strokeWidth=3;strokeColor=#0000FF;" edge="1" parent="1" source="liYk_GvnNs1xZ8OgV5sw-4" target="liYk_GvnNs1xZ8OgV5sw-2">
          <mxGeometry relative="1" as="geometry">
            <Array as="points">
              <mxPoint x="270" y="52" />
            </Array>
          </mxGeometry>
        </mxCell>
        <mxCell id="liYk_GvnNs1xZ8OgV5sw-4" value="" style="ellipse;whiteSpace=wrap;html=1;aspect=fixed;fillColor=#7EA6E0;" vertex="1" parent="1">
          <mxGeometry x="230" y="-80" width="80" height="80" as="geometry" />
        </mxCell>
        <mxCell id="liYk_GvnNs1xZ8OgV5sw-7" value="" style="ellipse;whiteSpace=wrap;html=1;aspect=fixed;fillColor=#97D077;" vertex="1" parent="1">
          <mxGeometry x="80" y="200" width="80" height="80" as="geometry" />
        </mxCell>
        <mxCell id="liYk_GvnNs1xZ8OgV5sw-12" style="edgeStyle=orthogonalEdgeStyle;rounded=0;orthogonalLoop=1;jettySize=auto;html=1;entryX=0.5;entryY=0;entryDx=0;entryDy=0;strokeWidth=3;curved=1;" edge="1" parent="1" source="liYk_GvnNs1xZ8OgV5sw-8" target="liYk_GvnNs1xZ8OgV5sw-7">
          <mxGeometry relative="1" as="geometry" />
        </mxCell>
        <mxCell id="liYk_GvnNs1xZ8OgV5sw-13" style="edgeStyle=orthogonalEdgeStyle;rounded=0;orthogonalLoop=1;jettySize=auto;html=1;entryX=0;entryY=0.5;entryDx=0;entryDy=0;strokeWidth=3;curved=1;strokeColor=#0000FF;" edge="1" parent="1" source="liYk_GvnNs1xZ8OgV5sw-8" target="liYk_GvnNs1xZ8OgV5sw-1">
          <mxGeometry relative="1" as="geometry" />
        </mxCell>
        <mxCell id="liYk_GvnNs1xZ8OgV5sw-20" style="edgeStyle=orthogonalEdgeStyle;rounded=0;orthogonalLoop=1;jettySize=auto;html=1;entryX=0.5;entryY=0;entryDx=0;entryDy=0;curved=1;strokeWidth=3;strokeColor=#F19C99;" edge="1" parent="1" target="liYk_GvnNs1xZ8OgV5sw-10">
          <mxGeometry relative="1" as="geometry">
            <mxPoint x="120" y="120" as="sourcePoint" />
            <Array as="points">
              <mxPoint x="120" y="180" />
              <mxPoint x="270" y="180" />
            </Array>
          </mxGeometry>
        </mxCell>
        <mxCell id="liYk_GvnNs1xZ8OgV5sw-8" value="" style="ellipse;whiteSpace=wrap;html=1;aspect=fixed;fillColor=#7EA6E0;" vertex="1" parent="1">
          <mxGeometry x="80" y="40" width="80" height="80" as="geometry" />
        </mxCell>
        <mxCell id="liYk_GvnNs1xZ8OgV5sw-19" style="edgeStyle=orthogonalEdgeStyle;rounded=0;orthogonalLoop=1;jettySize=auto;html=1;entryX=1;entryY=0;entryDx=0;entryDy=0;curved=1;strokeWidth=3;strokeColor=#F19C99;" edge="1" parent="1" source="liYk_GvnNs1xZ8OgV5sw-10" target="liYk_GvnNs1xZ8OgV5sw-4">
          <mxGeometry relative="1" as="geometry">
            <Array as="points">
              <mxPoint x="510" y="210" />
              <mxPoint x="510" y="-68" />
            </Array>
          </mxGeometry>
        </mxCell>
        <mxCell id="liYk_GvnNs1xZ8OgV5sw-22" style="edgeStyle=orthogonalEdgeStyle;rounded=0;orthogonalLoop=1;jettySize=auto;html=1;entryX=0;entryY=0.5;entryDx=0;entryDy=0;curved=1;strokeWidth=3;strokeColor=#0000FF;" edge="1" parent="1" source="liYk_GvnNs1xZ8OgV5sw-10" target="liYk_GvnNs1xZ8OgV5sw-8">
          <mxGeometry relative="1" as="geometry">
            <Array as="points">
              <mxPoint x="270" y="330" />
              <mxPoint x="30" y="330" />
              <mxPoint x="30" y="80" />
            </Array>
          </mxGeometry>
        </mxCell>
        <mxCell id="liYk_GvnNs1xZ8OgV5sw-10" value="" style="ellipse;whiteSpace=wrap;html=1;aspect=fixed;fillColor=#A680B8;" vertex="1" parent="1">
          <mxGeometry x="230" y="200" width="80" height="80" as="geometry" />
        </mxCell>
      </root>
    </mxGraphModel>
  </diagram>
</mxfile>
